<mxfile host="65bd71144e">
    <diagram id="mGlHpWQp-y3psWogmzTL" name="Page-1">
        <mxGraphModel dx="1586" dy="671" grid="1" gridSize="10" guides="1" tooltips="1" connect="1" arrows="1" fold="1" page="1" pageScale="1" pageWidth="827" pageHeight="1169" math="0" shadow="0">
            <root>
                <mxCell id="0"/>
                <mxCell id="1" parent="0"/>
                <mxCell id="VjWK1NiiqyZ015MewMUv-6" style="edgeStyle=orthogonalEdgeStyle;rounded=0;orthogonalLoop=1;jettySize=auto;html=1;exitX=1;exitY=0.5;exitDx=0;exitDy=0;exitPerimeter=0;entryX=0;entryY=0.5;entryDx=0;entryDy=0;entryPerimeter=0;" parent="1" source="JEhd2eeZYGgYMkYUohDz-3" target="JEhd2eeZYGgYMkYUohDz-4" edge="1">
                    <mxGeometry relative="1" as="geometry"/>
                </mxCell>
                <mxCell id="VjWK1NiiqyZ015MewMUv-8" value="" style="edgeStyle=orthogonalEdgeStyle;rounded=0;orthogonalLoop=1;jettySize=auto;html=1;" parent="1" source="JEhd2eeZYGgYMkYUohDz-3" target="VjWK1NiiqyZ015MewMUv-7" edge="1">
                    <mxGeometry relative="1" as="geometry">
                        <mxPoint x="280" y="526" as="targetPoint"/>
                    </mxGeometry>
                </mxCell>
                <mxCell id="VjWK1NiiqyZ015MewMUv-31" style="edgeStyle=none;rounded=0;orthogonalLoop=1;jettySize=auto;html=1;exitX=0.855;exitY=0.855;exitDx=0;exitDy=0;exitPerimeter=0;entryX=0.145;entryY=0.145;entryDx=0;entryDy=0;entryPerimeter=0;" parent="1" source="JEhd2eeZYGgYMkYUohDz-3" target="VjWK1NiiqyZ015MewMUv-29" edge="1">
                    <mxGeometry relative="1" as="geometry"/>
                </mxCell>
                <mxCell id="JEhd2eeZYGgYMkYUohDz-3" value="c1&lt;br&gt;10.0.0.1" style="outlineConnect=0;dashed=0;verticalLabelPosition=bottom;verticalAlign=top;align=center;html=1;shape=mxgraph.aws3.router;fillColor=#F58534;gradientColor=none;" parent="1" vertex="1">
                    <mxGeometry x="360" y="490" width="69" height="72" as="geometry"/>
                </mxCell>
                <mxCell id="VjWK1NiiqyZ015MewMUv-5" value="" style="edgeStyle=orthogonalEdgeStyle;rounded=0;orthogonalLoop=1;jettySize=auto;html=1;" parent="1" source="JEhd2eeZYGgYMkYUohDz-4" target="VjWK1NiiqyZ015MewMUv-4" edge="1">
                    <mxGeometry relative="1" as="geometry"/>
                </mxCell>
                <mxCell id="VjWK1NiiqyZ015MewMUv-19" value="" style="edgeStyle=none;rounded=0;orthogonalLoop=1;jettySize=auto;html=1;" parent="1" source="JEhd2eeZYGgYMkYUohDz-4" target="VjWK1NiiqyZ015MewMUv-18" edge="1">
                    <mxGeometry relative="1" as="geometry"/>
                </mxCell>
                <mxCell id="VjWK1NiiqyZ015MewMUv-23" style="edgeStyle=none;rounded=0;orthogonalLoop=1;jettySize=auto;html=1;exitX=0.855;exitY=0.145;exitDx=0;exitDy=0;exitPerimeter=0;entryX=0.145;entryY=0.855;entryDx=0;entryDy=0;entryPerimeter=0;" parent="1" source="JEhd2eeZYGgYMkYUohDz-4" target="VjWK1NiiqyZ015MewMUv-21" edge="1">
                    <mxGeometry relative="1" as="geometry"/>
                </mxCell>
                <mxCell id="VjWK1NiiqyZ015MewMUv-28" style="edgeStyle=none;rounded=0;orthogonalLoop=1;jettySize=auto;html=1;exitX=0.855;exitY=0.855;exitDx=0;exitDy=0;exitPerimeter=0;entryX=0.145;entryY=0.145;entryDx=0;entryDy=0;entryPerimeter=0;" parent="1" source="JEhd2eeZYGgYMkYUohDz-4" target="VjWK1NiiqyZ015MewMUv-25" edge="1">
                    <mxGeometry relative="1" as="geometry"/>
                </mxCell>
                <mxCell id="VjWK1NiiqyZ015MewMUv-30" value="" style="edgeStyle=none;rounded=0;orthogonalLoop=1;jettySize=auto;html=1;entryX=0.855;entryY=0.145;entryDx=0;entryDy=0;entryPerimeter=0;" parent="1" source="JEhd2eeZYGgYMkYUohDz-4" target="VjWK1NiiqyZ015MewMUv-29" edge="1">
                    <mxGeometry relative="1" as="geometry"/>
                </mxCell>
                <mxCell id="JEhd2eeZYGgYMkYUohDz-4" value="c2&lt;br&gt;10.0.0.2" style="outlineConnect=0;dashed=0;verticalLabelPosition=bottom;verticalAlign=top;align=center;html=1;shape=mxgraph.aws3.router;fillColor=#F58534;gradientColor=none;" parent="1" vertex="1">
                    <mxGeometry x="520" y="490" width="69" height="72" as="geometry"/>
                </mxCell>
                <mxCell id="JEhd2eeZYGgYMkYUohDz-29" value="ext1" style="sketch=0;points=[[0.5,0,0],[1,0.5,0],[0.5,1,0],[0,0.5,0],[0.145,0.145,0],[0.8555,0.145,0],[0.855,0.8555,0],[0.145,0.855,0]];verticalLabelPosition=bottom;html=1;verticalAlign=top;aspect=fixed;align=center;pointerEvents=1;shape=mxgraph.cisco19.rect;prIcon=router;fillColor=#FAFAFA;strokeColor=#005073;" parent="1" vertex="1">
                    <mxGeometry x="90" y="501" width="50" height="50" as="geometry"/>
                </mxCell>
                <mxCell id="JEhd2eeZYGgYMkYUohDz-39" value="172.16.0.0/19&lt;br&gt;172.16.1.1" style="text;html=1;strokeColor=none;fillColor=none;align=center;verticalAlign=middle;whiteSpace=wrap;rounded=0;fontStyle=1;fontSize=21;" parent="1" vertex="1">
                    <mxGeometry x="80" y="580" width="60" height="30" as="geometry"/>
                </mxCell>
                <mxCell id="VjWK1NiiqyZ015MewMUv-10" value="" style="edgeStyle=orthogonalEdgeStyle;rounded=0;orthogonalLoop=1;jettySize=auto;html=1;" parent="1" source="VjWK1NiiqyZ015MewMUv-4" target="VjWK1NiiqyZ015MewMUv-9" edge="1">
                    <mxGeometry relative="1" as="geometry"/>
                </mxCell>
                <mxCell id="VjWK1NiiqyZ015MewMUv-22" value="" style="edgeStyle=none;rounded=0;orthogonalLoop=1;jettySize=auto;html=1;" parent="1" source="VjWK1NiiqyZ015MewMUv-4" target="VjWK1NiiqyZ015MewMUv-21" edge="1">
                    <mxGeometry relative="1" as="geometry"/>
                </mxCell>
                <mxCell id="VjWK1NiiqyZ015MewMUv-26" value="" style="edgeStyle=none;rounded=0;orthogonalLoop=1;jettySize=auto;html=1;" parent="1" source="VjWK1NiiqyZ015MewMUv-4" target="VjWK1NiiqyZ015MewMUv-25" edge="1">
                    <mxGeometry relative="1" as="geometry"/>
                </mxCell>
                <mxCell id="VjWK1NiiqyZ015MewMUv-4" value="c3&lt;br&gt;10.0.0.3" style="outlineConnect=0;dashed=0;verticalLabelPosition=bottom;verticalAlign=top;align=center;html=1;shape=mxgraph.aws3.router;fillColor=#F58534;gradientColor=none;" parent="1" vertex="1">
                    <mxGeometry x="669" y="490" width="69" height="72" as="geometry"/>
                </mxCell>
                <mxCell id="VjWK1NiiqyZ015MewMUv-11" style="edgeStyle=orthogonalEdgeStyle;rounded=0;orthogonalLoop=1;jettySize=auto;html=1;exitX=0;exitY=0.5;exitDx=0;exitDy=0;exitPerimeter=0;entryX=1;entryY=0.5;entryDx=0;entryDy=0;entryPerimeter=0;" parent="1" source="VjWK1NiiqyZ015MewMUv-7" target="JEhd2eeZYGgYMkYUohDz-29" edge="1">
                    <mxGeometry relative="1" as="geometry"/>
                </mxCell>
                <mxCell id="VjWK1NiiqyZ015MewMUv-13" value="" style="rounded=0;orthogonalLoop=1;jettySize=auto;html=1;" parent="1" source="VjWK1NiiqyZ015MewMUv-7" target="VjWK1NiiqyZ015MewMUv-12" edge="1">
                    <mxGeometry relative="1" as="geometry"/>
                </mxCell>
                <mxCell id="VjWK1NiiqyZ015MewMUv-16" value="" style="edgeStyle=none;rounded=0;orthogonalLoop=1;jettySize=auto;html=1;" parent="1" source="VjWK1NiiqyZ015MewMUv-7" target="VjWK1NiiqyZ015MewMUv-15" edge="1">
                    <mxGeometry relative="1" as="geometry"/>
                </mxCell>
                <mxCell id="VjWK1NiiqyZ015MewMUv-7" value="r1&lt;br&gt;10.0.0.6" style="outlineConnect=0;dashed=0;verticalLabelPosition=bottom;verticalAlign=top;align=center;html=1;shape=mxgraph.aws3.router;fillColor=#F58534;gradientColor=none;" parent="1" vertex="1">
                    <mxGeometry x="210" y="490" width="69" height="72" as="geometry"/>
                </mxCell>
                <mxCell id="VjWK1NiiqyZ015MewMUv-34" style="edgeStyle=none;rounded=0;orthogonalLoop=1;jettySize=auto;html=1;exitX=1;exitY=0.5;exitDx=0;exitDy=0;exitPerimeter=0;entryX=0;entryY=0.5;entryDx=0;entryDy=0;entryPerimeter=0;" parent="1" source="VjWK1NiiqyZ015MewMUv-9" target="VjWK1NiiqyZ015MewMUv-32" edge="1">
                    <mxGeometry relative="1" as="geometry"/>
                </mxCell>
                <mxCell id="VjWK1NiiqyZ015MewMUv-9" value="r5&lt;br&gt;10.0.0.10" style="outlineConnect=0;dashed=0;verticalLabelPosition=bottom;verticalAlign=top;align=center;html=1;shape=mxgraph.aws3.router;fillColor=#F58534;gradientColor=none;" parent="1" vertex="1">
                    <mxGeometry x="818" y="490" width="69" height="72" as="geometry"/>
                </mxCell>
                <mxCell id="VjWK1NiiqyZ015MewMUv-14" style="edgeStyle=none;rounded=0;orthogonalLoop=1;jettySize=auto;html=1;exitX=0.855;exitY=0.855;exitDx=0;exitDy=0;exitPerimeter=0;entryX=0.5;entryY=0;entryDx=0;entryDy=0;entryPerimeter=0;" parent="1" source="VjWK1NiiqyZ015MewMUv-12" target="JEhd2eeZYGgYMkYUohDz-3" edge="1">
                    <mxGeometry relative="1" as="geometry"/>
                </mxCell>
                <mxCell id="VjWK1NiiqyZ015MewMUv-12" value="r2&lt;br&gt;10.0.0.7" style="outlineConnect=0;dashed=0;verticalLabelPosition=bottom;verticalAlign=top;align=center;html=1;shape=mxgraph.aws3.router;fillColor=#F58534;gradientColor=none;" parent="1" vertex="1">
                    <mxGeometry x="291" y="338" width="69" height="72" as="geometry"/>
                </mxCell>
                <mxCell id="VjWK1NiiqyZ015MewMUv-17" style="edgeStyle=none;rounded=0;orthogonalLoop=1;jettySize=auto;html=1;exitX=0.855;exitY=0.145;exitDx=0;exitDy=0;exitPerimeter=0;entryX=0.5;entryY=1;entryDx=0;entryDy=0;entryPerimeter=0;" parent="1" source="VjWK1NiiqyZ015MewMUv-15" target="JEhd2eeZYGgYMkYUohDz-3" edge="1">
                    <mxGeometry relative="1" as="geometry"/>
                </mxCell>
                <mxCell id="VjWK1NiiqyZ015MewMUv-15" value="r8&lt;br&gt;10.0.0.13" style="outlineConnect=0;dashed=0;verticalLabelPosition=bottom;verticalAlign=top;align=center;html=1;shape=mxgraph.aws3.router;fillColor=#F58534;gradientColor=none;" parent="1" vertex="1">
                    <mxGeometry x="291" y="642" width="69" height="72" as="geometry"/>
                </mxCell>
                <mxCell id="VjWK1NiiqyZ015MewMUv-20" style="edgeStyle=none;rounded=0;orthogonalLoop=1;jettySize=auto;html=1;exitX=0.5;exitY=1;exitDx=0;exitDy=0;exitPerimeter=0;entryX=0.855;entryY=0.145;entryDx=0;entryDy=0;entryPerimeter=0;" parent="1" source="VjWK1NiiqyZ015MewMUv-18" target="JEhd2eeZYGgYMkYUohDz-3" edge="1">
                    <mxGeometry relative="1" as="geometry"/>
                </mxCell>
                <mxCell id="VjWK1NiiqyZ015MewMUv-18" value="r3&lt;br&gt;10.0.0.8" style="outlineConnect=0;dashed=0;verticalLabelPosition=bottom;verticalAlign=top;align=center;html=1;shape=mxgraph.aws3.router;fillColor=#F58534;gradientColor=none;" parent="1" vertex="1">
                    <mxGeometry x="451" y="338" width="69" height="72" as="geometry"/>
                </mxCell>
                <mxCell id="VjWK1NiiqyZ015MewMUv-24" style="edgeStyle=none;rounded=0;orthogonalLoop=1;jettySize=auto;html=1;exitX=0.855;exitY=0.855;exitDx=0;exitDy=0;exitPerimeter=0;entryX=0.145;entryY=0.145;entryDx=0;entryDy=0;entryPerimeter=0;" parent="1" source="VjWK1NiiqyZ015MewMUv-21" target="VjWK1NiiqyZ015MewMUv-9" edge="1">
                    <mxGeometry relative="1" as="geometry"/>
                </mxCell>
                <mxCell id="VjWK1NiiqyZ015MewMUv-21" value="r4&lt;br&gt;10.0.0.9" style="outlineConnect=0;dashed=0;verticalLabelPosition=bottom;verticalAlign=top;align=center;html=1;shape=mxgraph.aws3.router;fillColor=#F58534;gradientColor=none;" parent="1" vertex="1">
                    <mxGeometry x="669" y="338" width="69" height="72" as="geometry"/>
                </mxCell>
                <mxCell id="VjWK1NiiqyZ015MewMUv-27" style="edgeStyle=none;rounded=0;orthogonalLoop=1;jettySize=auto;html=1;exitX=0.855;exitY=0.145;exitDx=0;exitDy=0;exitPerimeter=0;entryX=0.145;entryY=0.855;entryDx=0;entryDy=0;entryPerimeter=0;" parent="1" source="VjWK1NiiqyZ015MewMUv-25" target="VjWK1NiiqyZ015MewMUv-9" edge="1">
                    <mxGeometry relative="1" as="geometry"/>
                </mxCell>
                <mxCell id="VjWK1NiiqyZ015MewMUv-25" value="r6&lt;br&gt;10.0.0.11" style="outlineConnect=0;dashed=0;verticalLabelPosition=bottom;verticalAlign=top;align=center;html=1;shape=mxgraph.aws3.router;fillColor=#F58534;gradientColor=none;" parent="1" vertex="1">
                    <mxGeometry x="669" y="642" width="69" height="72" as="geometry"/>
                </mxCell>
                <mxCell id="VjWK1NiiqyZ015MewMUv-29" value="r7&lt;br&gt;10.0.0.12" style="outlineConnect=0;dashed=0;verticalLabelPosition=bottom;verticalAlign=top;align=center;html=1;shape=mxgraph.aws3.router;fillColor=#F58534;gradientColor=none;" parent="1" vertex="1">
                    <mxGeometry x="451" y="642" width="69" height="72" as="geometry"/>
                </mxCell>
                <mxCell id="VjWK1NiiqyZ015MewMUv-32" value="ext2" style="sketch=0;points=[[0.5,0,0],[1,0.5,0],[0.5,1,0],[0,0.5,0],[0.145,0.145,0],[0.8555,0.145,0],[0.855,0.8555,0],[0.145,0.855,0]];verticalLabelPosition=bottom;html=1;verticalAlign=top;aspect=fixed;align=center;pointerEvents=1;shape=mxgraph.cisco19.rect;prIcon=router;fillColor=#FAFAFA;strokeColor=#005073;" parent="1" vertex="1">
                    <mxGeometry x="970" y="501" width="50" height="50" as="geometry"/>
                </mxCell>
                <mxCell id="VjWK1NiiqyZ015MewMUv-33" value="172.17.0.0/19&lt;br&gt;172.17.1.1" style="text;html=1;strokeColor=none;fillColor=none;align=center;verticalAlign=middle;whiteSpace=wrap;rounded=0;fontStyle=1;fontSize=21;" parent="1" vertex="1">
                    <mxGeometry x="960" y="580" width="60" height="30" as="geometry"/>
                </mxCell>
            </root>
        </mxGraphModel>
    </diagram>
</mxfile>